<svg xmlns="http://www.w3.org/2000/svg" viewBox="0 0 75.88 69.85"><defs><style>.cls-1{fill:#3a3a3a;}</style></defs><title>itech_icon05</title><g id="レイヤー_2" data-name="レイヤー 2"><g id="_2" data-name="2"><path class="cls-1" d="M5.93,48.56H43.1A2.57,2.57,0,0,0,45.67,46V24.12a2.57,2.57,0,0,0-2.57-2.57H5.93a2.57,2.57,0,0,0-2.57,2.57V46A2.57,2.57,0,0,0,5.93,48.56ZM7.29,25H41.74V44.5H7.29Z"/><path class="cls-1" d="M48.65,55.69l-4.58-4.07a1.77,1.77,0,0,0-1.17-.41H6.13A1.77,1.77,0,0,0,5,51.62L.38,55.69a1.05,1.05,0,0,0-.38.79v1.42a.7.7,0,0,0,.77.6H48.26a.7.7,0,0,0,.77-.6V56.47A1.05,1.05,0,0,0,48.65,55.69Zm-29.39.48,1.33-1.79H29l1.32,1.79Z"/><path class="cls-1" d="M71.5,3.92H57.38A4.38,4.38,0,0,0,53,8.3V41.76a4.38,4.38,0,0,0,4.38,4.38H71.5a4.38,4.38,0,0,0,4.38-4.38V8.3A4.38,4.38,0,0,0,71.5,3.92ZM64.44,43.55a1.77,1.77,0,1,1,1.77-1.77A1.78,1.78,0,0,1,64.44,43.55ZM73.28,9.47v28H55.59v-28Z"/><path class="cls-1" d="M38,0A32.47,32.47,0,0,0,19.09,6.62L16.34,4.08,13.9,16.55,26,12.48l-3-2.43a26.39,26.39,0,0,1,15-5Z"/><path class="cls-1" d="M66.75,56.3,54.27,58.79l2.43,2.77c-.36.2-.84.39-1.2.57A26.2,26.2,0,0,1,44,64.75v5.1a30.59,30.59,0,0,0,13.74-3.14c.77-.38,1.59-.8,2.33-1.25l2.56,2.88Z"/></g></g></svg>